<svg width="38" height="38" viewBox="0 0 38 38" fill="none" xmlns="http://www.w3.org/2000/svg">
<path d="M28.5 9.5C28.2031 9.20317 27.8004 9.03642 27.3806 9.03642C26.9607 9.03642 26.5581 9.20317 26.2612 9.5L19 16.7612L11.7388 9.5C11.4419 9.20317 11.0392 9.03642 10.6194 9.03642C10.1996 9.03642 9.79691 9.20317 9.49999 9.5C9.20316 9.79692 9.03641 10.1996 9.03641 10.6194C9.03641 11.0393 9.20316 11.4419 9.49999 11.7388L16.7612 19L9.49999 26.2612C9.20316 26.5581 9.03641 26.9607 9.03641 27.3806C9.03641 27.8004 9.20316 28.2031 9.49999 28.5C9.79691 28.7968 10.1996 28.9636 10.6194 28.9636C11.0392 28.9636 11.4419 28.7968 11.7388 28.5L19 21.2388L26.2612 28.5C26.5581 28.7968 26.9607 28.9636 27.3806 28.9636C27.8004 28.9636 28.2031 28.7968 28.5 28.5C28.7968 28.2031 28.9636 27.8004 28.9636 27.3806C28.9636 26.9607 28.7968 26.5581 28.5 26.2612L21.2388 19L28.5 11.7388C28.7968 11.4419 28.9636 11.0393 28.9636 10.6194C28.9636 10.1996 28.7968 9.79692 28.5 9.5Z" fill="black"/>
</svg>
