<svg width="18" height="18" viewBox="0 0 18 18" fill="none" xmlns="http://www.w3.org/2000/svg">
<g clip-path="url(#clip0_111_1051)">
<path d="M15.75 9H13.5C12.6727 9 12 9.67275 12 10.5C12 11.3273 11.3273 12 10.5 12H7.5C6.67275 12 6 11.3273 6 10.5C6 9.67275 5.32725 9 4.5 9H2.25C1.0095 9 0 10.0095 0 11.25V14.25C0 16.3177 1.68225 18 3.75 18H14.25C16.3177 18 18 16.3177 18 14.25V11.25C18 10.0095 16.9905 9 15.75 9ZM16.5 14.25C16.5 15.4905 15.4905 16.5 14.25 16.5H3.75C2.5095 16.5 1.5 15.4905 1.5 14.25V11.25C1.5 11.0511 1.57902 10.8603 1.71967 10.7197C1.86032 10.579 2.05109 10.5 2.25 10.5L4.5 10.4985V10.5C4.5 12.1545 5.8455 13.5 7.5 13.5H10.5C12.1545 13.5 13.5 12.1545 13.5 10.5H15.75C15.9489 10.5 16.1397 10.579 16.2803 10.7197C16.421 10.8603 16.5 11.0511 16.5 11.25V14.25ZM5.46975 5.34075C5.40012 5.27112 5.34488 5.18845 5.3072 5.09747C5.26951 5.00649 5.25011 4.90898 5.25011 4.8105C5.25011 4.71202 5.26951 4.61451 5.3072 4.52353C5.34488 4.43255 5.40012 4.34988 5.46975 4.28025C5.53938 4.21062 5.62205 4.15538 5.71303 4.11769C5.80401 4.08001 5.90152 4.06061 6 4.06061C6.09848 4.06061 6.19599 4.08001 6.28697 4.11769C6.37795 4.15538 6.46062 4.21062 6.53025 4.28025L8.25 6V0.75C8.25 0.551088 8.32902 0.360322 8.46967 0.21967C8.61032 0.0790176 8.80109 0 9 0C9.19891 0 9.38968 0.0790176 9.53033 0.21967C9.67098 0.360322 9.75 0.551088 9.75 0.75V6L11.4698 4.28025C11.6104 4.13962 11.8011 4.06061 12 4.06061C12.1989 4.06061 12.3896 4.13962 12.5303 4.28025C12.6709 4.42088 12.7499 4.61162 12.7499 4.8105C12.7499 5.00938 12.6709 5.20012 12.5303 5.34075L10.0605 7.8105C9.781 8.09011 9.4021 8.2476 9.00675 8.2485L9 8.25L8.99325 8.2485C8.5979 8.2476 8.219 8.09011 7.9395 7.8105L5.46975 5.34075Z" fill="white"/>
</g>
<defs>
<clipPath id="clip0_111_1051">
<rect width="18" height="18" fill="white"/>
</clipPath>
</defs>
</svg>
