<svg width="18" height="18" viewBox="0 0 18 18" fill="none" xmlns="http://www.w3.org/2000/svg">
<g clip-path="url(#clip0_645_11)">
<path d="M7.57448 5.92979C7.57448 5.86745 7.58314 5.73283 7.60045 5.52677C7.61907 5.32029 7.69699 5.10428 7.83681 4.87745C7.97533 4.65149 8.2 4.44847 8.51254 4.26882C8.82378 4.09004 9.27354 4 9.86053 4H11.5141V5.80209H10.3034C10.1835 5.80209 10.0718 5.84711 9.97091 5.93585C9.87092 6.02459 9.81941 6.109 9.81941 6.18735V7.30851H11.5137C11.496 7.52799 11.4765 7.7414 11.454 7.94745L11.3869 8.49201C11.36 8.67599 11.3328 8.84654 11.3059 9.00368H9.80729V14H7.57448V9.00325H6.48535V7.30851H7.57448V5.92979Z" fill="white"/>
</g>
<path d="M13.4997 0H4.49989C2.02517 0 0 2.02517 0 4.49989V13.5001C0 15.9742 2.02517 18 4.49989 18H13.4997C15.9744 18 17.9996 15.9742 17.9996 13.5001V4.49989C17.9996 2.02517 15.9744 0 13.4997 0ZM16.4995 13.5001C16.4995 15.1538 15.1543 16.5 13.4997 16.5H4.49989C2.84596 16.5 1.50004 15.1538 1.50004 13.5001V4.49989C1.50004 2.84574 2.84596 1.50004 4.49989 1.50004H13.4997C15.1543 1.50004 16.4995 2.84574 16.4995 4.49989V13.5001Z" fill="white"/>
<defs>
<clipPath id="clip0_645_11">
<rect width="10" height="10" fill="white" transform="translate(4 4)"/>
</clipPath>
</defs>
</svg>
