<svg width="11" height="12" viewBox="0 0 11 12" fill="none" xmlns="http://www.w3.org/2000/svg">
<path fill-rule="evenodd" clip-rule="evenodd" d="M4.99273 11.2633C5.11063 11.3122 5.23992 11.3392 5.37551 11.3392C5.65165 11.3392 5.90165 11.2273 6.08262 11.0463L10.4218 6.70711C10.8123 6.31658 10.8123 5.68342 10.4218 5.29289C10.0313 4.90237 9.39811 4.90237 9.00759 5.29289L6.37551 7.92497L6.37551 1.66082C6.37551 1.10853 5.92779 0.660817 5.37551 0.660817C4.82323 0.660817 4.37551 1.10853 4.37551 1.66082L4.37551 7.92497L1.74343 5.29289C1.35291 4.90237 0.719745 4.90237 0.32922 5.29289C-0.061304 5.68342 -0.0613037 6.31658 0.329221 6.70711L4.6678 11.0457C4.67018 11.0481 4.67256 11.0504 4.67496 11.0528C4.76571 11.1419 4.87339 11.2138 4.99273 11.2633Z" fill="black"/>
</svg>
