<svg width="18" height="18" viewBox="0 0 18 18" fill="none" xmlns="http://www.w3.org/2000/svg">
<g clip-path="url(#clip0_188_509)">
<path d="M13.5 0H4.50026C2.02554 0 0.000366211 2.02517 0.000366211 4.49989V13.5001C0.000366211 15.9742 2.02554 18 4.50026 18H13.5C15.9748 18 17.9999 15.9742 17.9999 13.5001V4.49989C17.9999 2.02517 15.9748 0 13.5 0ZM16.4999 13.5001C16.4999 15.1538 15.1547 16.5 13.5 16.5H4.50026C2.84633 16.5 1.5004 15.1538 1.5004 13.5001V4.49989C1.5004 2.84574 2.84633 1.50004 4.50026 1.50004H13.5C15.1547 1.50004 16.4999 2.84574 16.4999 4.49989V13.5001Z" fill="white"/>
<path d="M13.8756 5.2497C14.4969 5.2497 15.0006 4.74603 15.0006 4.12473C15.0006 3.50342 14.4969 2.99976 13.8756 2.99976C13.2543 2.99976 12.7507 3.50342 12.7507 4.12473C12.7507 4.74603 13.2543 5.2497 13.8756 5.2497Z" fill="white"/>
<path d="M9.00001 4.5C6.51426 4.5 4.50012 6.51436 4.50012 8.99989C4.50012 11.4845 6.51426 13.5002 9.00001 13.5002C11.4851 13.5002 13.4999 11.4845 13.4999 8.99989C13.4999 6.51436 11.4851 4.5 9.00001 4.5ZM9.00001 12.0002C7.34336 12.0002 6.00016 10.657 6.00016 8.99989C6.00016 7.3428 7.34336 6.00004 9.00001 6.00004C10.6567 6.00004 11.9999 7.3428 11.9999 8.99989C11.9999 10.657 10.6567 12.0002 9.00001 12.0002Z" fill="white"/>
</g>
<defs>
<clipPath id="clip0_188_509">
<rect width="18" height="18" fill="white"/>
</clipPath>
</defs>
</svg>
