<svg width="10" height="16" viewBox="0 0 10 16" fill="none" xmlns="http://www.w3.org/2000/svg">
<path d="M0.897402 2.2959V3.96403C0.897402 4.24553 1.0418 4.50563 1.2762 4.64638L5.18749 6.99489V4.87186L0.897402 2.2959Z" fill="#F7F7F7"/>
<path d="M3.76308 10.8118L3.75747 10.8098V14.6785L5.1875 15.5371V9.09361L1.0274 6.5957V8.21112C1.0274 8.48832 1.17049 8.74419 1.40215 8.88127L3.7496 10.2703" fill="#F7F7F7"/>
<path d="M9.4804 4.4137V6.08183C9.4804 6.36332 9.336 6.62343 9.1016 6.76418L5.19031 9.11268V6.98966L9.4804 4.4137Z" fill="#F7F7F7"/>
<path d="M9.46197 8.12292V9.79106C9.46197 10.0726 9.31757 10.3327 9.08317 10.4734L5.17188 12.8219V10.6989L9.46197 8.12292Z" fill="#F7F7F7"/>
<path d="M5.47875 3.66993C6.40215 3.66993 7.15071 2.89143 7.15071 1.9311C7.15071 0.970764 6.40215 0.192261 5.47875 0.192261C4.55535 0.192261 3.80679 0.970764 3.80679 1.9311C3.80679 2.89143 4.55535 3.66993 5.47875 3.66993Z" fill="#F7F7F7"/>
</svg>
