<svg width="18" height="18" viewBox="0 0 18 18" fill="none" xmlns="http://www.w3.org/2000/svg">
<path d="M6.48281 7.15039H4.72852V12.7648H6.48281V7.15039Z" fill="white"/>
<path d="M11.2738 7.09766C10.2684 7.09766 9.63906 7.64609 9.52305 8.03281V7.15039H7.55078C7.57539 7.61797 7.55078 12.7648 7.55078 12.7648H9.52305V9.73086C9.52305 9.55859 9.51602 9.38984 9.56523 9.27031C9.69883 8.93281 9.99063 8.58125 10.5145 8.58125C11.2 8.58125 11.5094 9.10156 11.5094 9.86094V12.7648H13.4992V9.64297C13.4992 7.90625 12.5219 7.09766 11.2738 7.09766Z" fill="white"/>
<path d="M5.56836 4.5C4.92148 4.5 4.49609 4.91836 4.49609 5.47383C4.49609 6.01875 4.90742 6.44766 5.54375 6.44766H5.55781C6.21875 6.44766 6.63008 6.01523 6.62656 5.47383C6.6125 4.91836 6.21523 4.5 5.56836 4.5Z" fill="white"/>
<path d="M13.4997 0H4.49989C2.02517 0 0 2.02517 0 4.49989V13.5001C0 15.9742 2.02517 18 4.49989 18H13.4997C15.9744 18 17.9996 15.9742 17.9996 13.5001V4.49989C17.9996 2.02517 15.9744 0 13.4997 0ZM16.4995 13.5001C16.4995 15.1538 15.1543 16.5 13.4997 16.5H4.49989C2.84596 16.5 1.50004 15.1538 1.50004 13.5001V4.49989C1.50004 2.84574 2.84596 1.50004 4.49989 1.50004H13.4997C15.1543 1.50004 16.4995 2.84574 16.4995 4.49989V13.5001Z" fill="white"/>
</svg>
