<svg width="52" height="52" viewBox="0 0 52 52" fill="none" xmlns="http://www.w3.org/2000/svg">
<g clip-path="url(#clip0_1_1807)">
<path d="M26 0C15.249 0 6.5 8.80967 6.5 19.6408C6.5 35.0307 24.167 50.921 24.9188 51.5883C25.2287 51.8635 25.6143 52 26 52C26.3857 52 26.7713 51.8635 27.0812 51.5905C27.833 50.921 45.5 35.0307 45.5 19.6408C45.5 8.80967 36.751 0 26 0ZM26 30.3333C20.0265 30.3333 15.1667 25.4735 15.1667 19.5C15.1667 13.5265 20.0265 8.66667 26 8.66667C31.9735 8.66667 36.8333 13.5265 36.8333 19.5C36.8333 25.4735 31.9735 30.3333 26 30.3333Z" fill="#E61E26"/>
<circle cx="26.5" cy="19.5" r="11.5" fill="#D3F8E2"/>
</g>
<defs>
<clipPath id="clip0_1_1807">
<rect width="52" height="52" fill="white"/>
</clipPath>
</defs>
</svg>
