<svg width="13" height="13" viewBox="0 0 13 13" fill="none" xmlns="http://www.w3.org/2000/svg">
<path fill-rule="evenodd" clip-rule="evenodd" d="M0.806283 6.9321C0.756371 6.81462 0.728267 6.68557 0.727093 6.54998C0.724701 6.27385 0.834461 6.02289 1.01385 5.84037L5.74545 1.0261C6.13258 0.632209 6.76572 0.626726 7.15961 1.01385C7.55351 1.40098 7.55899 2.03412 7.17186 2.42801L4.13252 5.52046L11.2643 5.4587C11.8165 5.45392 12.2681 5.89774 12.2729 6.45C12.2777 7.00227 11.8338 7.45384 11.2816 7.45862L4.14984 7.52038L7.24228 10.5597C7.63617 10.9469 7.64165 11.58 7.25453 11.9739C6.8674 12.3678 6.23426 12.3733 5.84037 11.9861L1.02663 7.25505C1.02426 7.25272 1.02189 7.25038 1.01954 7.24803C0.929657 7.15805 0.8568 7.051 0.806283 6.9321Z" fill="white"/>
</svg>
