<svg width="9" height="10" viewBox="0 0 9 10" fill="none" xmlns="http://www.w3.org/2000/svg">
<path fill-rule="evenodd" clip-rule="evenodd" d="M8.79932 1.24209C8.75052 1.12415 8.67819 1.01365 8.58231 0.917771C8.38705 0.722509 8.13112 0.624878 7.8752 0.624878H1.125C0.572715 0.624878 0.125 1.07259 0.125 1.62488C0.125 2.17716 0.572715 2.62488 1.125 2.62488H5.46099L0.417893 7.66797C0.0273689 8.0585 0.0273689 8.69166 0.417893 9.08219C0.808418 9.47271 1.44158 9.47271 1.83211 9.08219L6.8752 4.03909V8.37508C6.8752 8.92737 7.32292 9.37508 7.8752 9.37508C8.42749 9.37508 8.8752 8.92737 8.8752 8.37508V1.62563C8.87521 1.6223 8.87519 1.61897 8.87516 1.61565C8.87399 1.48847 8.84871 1.36147 8.79932 1.24209Z" fill="white"/>
</svg>
