<svg width="35" height="36" viewBox="0 0 35 36" fill="none" xmlns="http://www.w3.org/2000/svg">
<rect y="0.5" width="35" height="35" rx="17.5" fill="#E61E26"/>
<path fill-rule="evenodd" clip-rule="evenodd" d="M21.7993 14.2421C21.7505 14.1241 21.6782 14.0136 21.5823 13.9178C21.387 13.7225 21.1311 13.6249 20.8752 13.6249H14.125C13.5727 13.6249 13.125 14.0726 13.125 14.6249C13.125 15.1772 13.5727 15.6249 14.125 15.6249H18.461L13.4179 20.668C13.0274 21.0585 13.0274 21.6917 13.4179 22.0822C13.8084 22.4727 14.4416 22.4727 14.8321 22.0822L19.8752 17.0391V21.3751C19.8752 21.9274 20.3229 22.3751 20.8752 22.3751C21.4275 22.3751 21.8752 21.9274 21.8752 21.3751V14.6256C21.8752 14.6223 21.8752 14.619 21.8752 14.6156C21.874 14.4885 21.8487 14.3615 21.7993 14.2421Z" fill="white"/>
</svg>
