<svg width="9" height="9" viewBox="0 0 9 9" fill="none" xmlns="http://www.w3.org/2000/svg">
<path fill-rule="evenodd" clip-rule="evenodd" d="M8.67432 0.617216C8.62552 0.499271 8.55319 0.38877 8.45731 0.292893C8.26205 0.0976311 8.00612 0 7.7502 0L1 0C0.447715 0 1.49012e-08 0.447715 1.49012e-08 1C1.49012e-08 1.55228 0.447715 2 1 2L5.33599 2L0.292893 7.0431C-0.0976311 7.43362 -0.0976311 8.06679 0.292893 8.45731C0.683418 8.84783 1.31658 8.84783 1.70711 8.45731L6.7502 3.41421L6.7502 7.7502C6.7502 8.30249 7.19792 8.7502 7.7502 8.7502C8.30249 8.7502 8.7502 8.30249 8.7502 7.7502V1.00075C8.75021 0.997423 8.75019 0.994096 8.75016 0.990768C8.74899 0.863589 8.72371 0.73659 8.67432 0.617216Z" fill="white"/>
</svg>
