<svg width="18" height="18" viewBox="0 0 18 18" fill="none" xmlns="http://www.w3.org/2000/svg">
<path d="M9.95249 8.23476L13.6756 4H12.7935L9.55922 7.67622L6.97792 4H4L7.90431 9.55959L4 14H4.88214L8.2955 10.1169L11.0221 14H14L9.95249 8.23476ZM8.74387 9.60839L8.34768 9.05444L5.20027 4.65073H6.55542L9.09623 8.20598L9.49075 8.75994L12.7931 13.381H11.4379L8.74387 9.60839Z" fill="white"/>
<path d="M13.4997 0H4.49989C2.02517 0 0 2.02517 0 4.49989V13.5001C0 15.9742 2.02517 18 4.49989 18H13.4997C15.9744 18 17.9996 15.9742 17.9996 13.5001V4.49989C17.9996 2.02517 15.9744 0 13.4997 0ZM16.4995 13.5001C16.4995 15.1538 15.1543 16.5 13.4997 16.5H4.49989C2.84596 16.5 1.50004 15.1538 1.50004 13.5001V4.49989C1.50004 2.84574 2.84596 1.50004 4.49989 1.50004H13.4997C15.1543 1.50004 16.4995 2.84574 16.4995 4.49989V13.5001Z" fill="white"/>
</svg>
